PathFileType	4	(X/Y/Z)	Patient4_TMGait_0pt8_01_right_31.trc.trc
DataRate	CameraRate	NumFrames	NumMarkers	Units	OrigDataRate	OrigDataStartFrame	OrigNumFrames
86.956521739130	86.956521739130	4	33	mm	86.956521739130	1	       141
Frame#	Time	Sacral			L.Shoulder			Chest			R.Shoulder			Neck			R.ASIS			L.ASIS			R.Thigh.Superior			R.Thigh.Lateral			R.Thigh.Inferior			R.Patella			L.Thigh.Superior			L.Thigh.Lateral			L.Thigh.Inferior			L.Patella			L.Shank.Superior			L.Shank.Lateral			L.Shank.Inferior			R.Shank.Superior			R.Shank.Lateral			R.Shank.Inferior			R.Heel			R.Midfoot.Superior			R.Midfoot.Lateral			R.Toe			L.Heel			L.Midfoot.Lateral			L.Midfoot.Superior			L.Toe			L.Elbow			L.Wrist			R.Elbow			R.Wrist			
		X1	Y1	Z1	X2	Y2	Z2	X3	Y3	Z3	X4	Y4	Z4	X5	Y5	Z5	X6	Y6	Z6	X7	Y7	Z7	X8	Y8	Z8	X9	Y9	Z9	X10	Y10	Z10	X11	Y11	Z11	X12	Y12	Z12	X13	Y13	Z13	X14	Y14	Z14	X15	Y15	Z15	X16	Y16	Z16	X17	Y17	Z17	X18	Y18	Z18	X19	Y19	Z19	X20	Y20	Z20	X21	Y21	Z21	X22	Y22	Z22	X23	Y23	Z23	X24	Y24	Z24	X25	Y25	Z25	X26	Y26	Z26	X27	Y27	Z27	X28	Y28	Z28	X29	Y29	Z29	X30	Y30	Z30	X31	Y31	Z31	X32	Y32	Z32	X33	Y33	Z33	

1	34.650000000000	842.729733156241	1011.728343673966	456.372485165960	1029.653645149161	1430.492166299000	267.652622150250	1126.105189470526	1368.385401080578	435.519104062212	1035.429409407114	1447.220245095122	604.690649340094	1005.774467041963	1498.267485355204	421.418733693734	1066.026382188460	947.192483743709	577.251114621785	1060.335195191191	964.929299009121	304.069382767969	1153.122870300389	778.564989550048	549.285092829693	1114.267472231123	657.061188485880	621.583121604442	1206.372158182135	619.047652542322	544.727490084669	1223.516990856891	502.504455121309	566.405165672146	1106.402653047914	753.957743836307	332.429650190121	1017.295832280388	639.484888592993	273.077612414516	1100.746777704781	561.244291406278	335.233820828974	1099.678599994093	492.728133202236	345.126637189789	1075.798838720638	420.836798735831	336.995328332278	988.652627417289	303.744612124778	289.155514564013	1044.338201496598	195.089044814957	360.559509296369	1139.688352758049	432.147089304286	570.956164911416	1012.429122459262	408.943071035388	629.272435027134	984.696795157614	303.428330999414	579.038420536186	778.103388639652	271.710092573372	547.568362534520	935.942134180229	187.705365358291	589.548285771859	826.609213330324	202.549603654941	620.557732434395	981.785702909301	66.088218543229	613.826472719610	920.846064758462	37.895790033118	407.477907254913	990.764677537884	35.626175223249	322.991700923170	1073.942834560827	97.382732359159	346.921556184367	1201.329544371389	49.154944063099	312.312119216877	1012.508620877514	1079.501435644614	145.757267485333	1093.876021464519	830.922528220085	153.403605386949	999.900065443878	1102.852820526282	728.385005496163	1226.894543064234	986.478261788966	700.204191305138	
2	34.661500000000	842.065256949910	1011.596741968191	455.085184767243	1030.254298968122	1431.231597293179	267.637485003243	1125.674034450469	1368.500655081729	435.834823507419	1034.205326130515	1446.740358562311	604.733608955552	1005.699976313993	1498.534850670526	421.537639702018	1065.218635756516	948.686040910630	576.755716938226	1059.830594426017	965.153095758488	303.490490860902	1154.578191510736	782.999207057311	548.000950558641	1119.147932198592	661.145673457313	621.329503821950	1211.609925088983	625.009284911775	544.080342408029	1231.887696990595	509.421350620316	566.049712379124	1104.149323324818	752.933163908185	332.398364385757	1013.351520885873	639.461978306495	272.293663080189	1095.471451078454	560.123349303054	335.202072675315	1093.478303037966	491.684393035857	345.250063539975	1069.185080320489	420.083361027592	337.059458018637	981.205194481368	303.692465981491	289.137840632449	1035.774598685752	194.625620710427	360.635594813640	1150.867451766333	436.490371736089	571.018375989749	1025.226627926877	408.063367813018	629.755755584404	1001.746229741941	301.518566737930	579.675771015285	796.976591535054	261.094252525619	548.846773315997	958.050919286976	184.469263259125	591.270910355907	848.280586504941	194.484244229596	622.035227449200	1008.751435630839	64.790248506951	615.481431452741	911.036483047699	37.895596204973	407.486636730323	981.050719128520	35.627202434619	323.032530220288	1064.328975194310	97.272634606478	347.053891383349	1191.700941470060	48.792779485457	312.326305852096	1021.896153298713	1081.622165373624	142.454179985215	1117.393119217452	839.243296791093	149.904441784539	991.067772596886	1102.683350123389	726.284709447576	1204.089785330854	965.787676251347	703.044273589514	
3	34.673000000000	841.367321500393	1011.469794495685	453.810495095010	1030.867276062645	1431.949615822562	267.639377842921	1125.266010846189	1368.591679625497	436.158202871627	1033.015136239477	1446.243468970861	604.793320042780	1005.641227077921	1498.780628320138	421.671427362232	1064.393832706225	950.098878341953	576.270866772116	1059.334852621045	965.345097698060	302.918465772183	1155.974872484084	787.317476291011	546.782363212725	1123.863706809296	665.127949715700	621.098348026230	1216.655333465241	630.805146932703	543.469553720311	1239.986030412852	516.204774688289	565.747818272721	1101.912495275550	751.915453968582	332.390130279390	1009.495005306056	639.410382355972	271.557736856104	1090.293377541078	559.005312778462	335.191237383402	1087.394423573076	490.645853161412	345.385571336101	1062.689151520046	419.323568339899	337.136686940374	973.883401647305	303.631767009559	289.123377680343	1027.324981290573	194.155992320197	360.718812461916	1161.806316164956	440.707962013811	571.122857890018	1037.830064696493	406.995990396174	630.263387178596	1018.687445480779	299.445797214195	580.349991355137	815.825324136395	250.235635223554	550.126111083673	980.095422291155	181.007800409968	592.946805523840	869.927362429290	186.212838128504	623.528523265646	1035.707745424839	63.381075904071	617.194835825396	901.355980344980	37.893197443420	407.494531803746	971.459106732897	35.629262973313	323.071255184558	1054.837920169588	97.163942664557	347.186738693334	1182.195524233627	48.431868308475	312.341039120617	1031.113088385473	1083.744824716350	139.228916179066	1140.561396560972	847.647378631086	146.534060729353	982.515052909261	1102.455995004921	724.218002570741	1181.271642392039	945.541425212961	705.838612659612	
4	34.684500000000	840.625557820692	1011.340300014761	452.557160784795	1031.520779454111	1432.621400737822	267.687450106823	1124.914201574360	1368.624032303974	436.508932686495	1031.901343600637	1445.700984838471	604.896899018670	1005.623174099708	1498.975476211658	421.846696090455	1063.546278879921	951.348670329538	575.813456984148	1058.870919459685	965.470989922165	302.365555897040	1157.233161364768	791.360097297840	545.701520811646	1128.200205733622	668.860871418468	620.922800022754	1221.269783067708	636.215555011980	542.944184510788	1247.504292065643	522.701194510649	565.553713257986	1099.682473132851	750.890561184734	332.423900025471	1005.753374944559	639.306264859196	270.906690536106	1085.228210551883	557.882989544758	335.214416463531	1081.449312767475	489.611425352612	345.537062564151	1056.330074191074	418.550329572461	337.234256233968	966.711654886391	303.557268973825	289.112006163515	1018.998945732474	193.676739866941	360.813962647105	1172.283568929239	444.674733709443	571.313248322602	1050.165965814952	405.518012789902	630.840051087883	1035.589642125451	297.062140746848	581.101131287008	834.953318129649	238.821248627892	551.431540633726	1002.296220003381	177.180895005546	594.552873739706	891.870974569145	177.518534954248	625.057512059232	1062.955048551386	61.913029150900	618.981279777141	891.828789419247	37.890373828953	407.500669979423	962.007947967944	35.634084521742	323.106352776909	1045.489420687572	97.057242256638	347.319088425999	1172.831700082974	48.070003832223	312.356434489430	1040.054620282648	1085.879645525308	136.160028352254	1163.174018408744	856.371151966109	143.432507761779	974.436453779506	1102.130097727175	722.208918707684	1158.257682091973	926.209935068265	708.560408381045	
